<?xml version="1.0" encoding="UTF-8"?>
<svg width="512" height="512" version="1.1" viewBox="0 0 135.47 135.47" xmlns="http://www.w3.org/2000/svg">
  <g transform="translate(0 -161.53)">
    <circle cx="67.735" cy="229.27" r="67.735" fill="#5d5d5d" />
    <g fill="#f2f2f2">
      <path d="m67.733 199.07c-8.4983 0-15.385 6.8867-15.385 15.385 0 8.4983 6.8867 15.385 15.385 15.385 8.4983 0 15.385-6.8867 15.385-15.385 0-8.4983-6.8867-15.385-15.385-15.385zm0 3.8463c6.381 0 11.538 5.1576 11.538 11.538 0 6.381-5.1576 11.538-11.538 11.538-6.381 0-11.538-5.1576-11.538-11.538 0-6.381 5.1576-11.538 11.538-11.538z" />
      <path d="m67.733 237.61c-16.117 0-28.695 12.578-28.695 28.695h3.8463c0-13.757 11.092-24.849 24.849-24.849 13.757 0 24.849 11.092 24.849 24.849h3.8463c0-16.117-12.578-28.695-28.695-28.695z" />
    </g>
  </g>
</svg>
